<?xml version="1.0" standalone="no"?>
<!DOCTYPE svg PUBLIC "-//W3C//DTD SVG 20010904//EN"
 "http://www.w3.org/TR/2001/REC-SVG-20010904/DTD/svg10.dtd">
<svg version="1.0" xmlns="http://www.w3.org/2000/svg"
 width="512.000000pt" height="512.000000pt" viewBox="0 0 512.000000 512.000000"
 preserveAspectRatio="xMidYMid meet">

<g transform="translate(0.000000,512.000000) scale(0.100000,-0.100000)"
fill="#000000" stroke="none">
<path d="M720 2880 l0 -1250 260 0 260 0 0 455 0 455 211 -2 210 -3 175 -340
c96 -187 200 -389 232 -450 l57 -110 293 -3 c160 -1 292 2 292 6 0 5 -40 83
-88 173 -49 90 -146 272 -217 404 -70 132 -147 276 -171 320 l-43 80 75 39
c47 24 101 63 143 105 157 152 231 337 231 575 0 408 -216 677 -620 772 -66
16 -145 18 -687 21 l-613 4 0 -1251z m1097 826 c216 -58 327 -247 279 -475
-26 -123 -92 -207 -201 -257 -73 -34 -166 -43 -427 -44 l-228 0 0 395 0 395
263 0 c190 0 276 -4 314 -14z"/>
<path d="M3625 3520 c-312 -35 -562 -219 -680 -500 -67 -157 -89 -299 -82
-515 4 -129 10 -180 31 -260 91 -344 324 -565 665 -631 102 -19 326 -18 432 2
305 58 532 255 613 532 l15 52 -233 0 -233 0 -18 -40 c-74 -164 -359 -239
-549 -144 -129 64 -226 228 -226 381 l0 43 635 0 635 0 0 143 c0 319 -85 546
-268 719 -112 106 -238 171 -391 203 -86 18 -258 26 -346 15z m240 -385 c145
-38 248 -163 279 -337 l7 -38 -396 0 -395 0 6 28 c17 78 28 111 49 152 84 166
263 243 450 195z"/>
<path d="M1870 1382 c0 -72 71 -176 142 -210 l43 -20 -40 -7 c-169 -28 -327
-141 -391 -280 -82 -177 -71 -377 27 -524 179 -269 590 -276 763 -14 63 94 84
238 49 338 -24 70 -110 156 -186 184 -122 45 -260 18 -336 -64 -133 -145 -52
-356 139 -359 69 -1 118 25 144 77 36 74 -6 147 -84 147 -39 0 -70 -23 -70
-53 0 -11 -8 -17 -25 -17 -29 0 -30 8 -10 56 35 84 173 83 225 -1 24 -38 27
-113 6 -153 -19 -36 -65 -78 -99 -91 -41 -16 -142 -13 -182 3 -95 40 -155 127
-155 224 0 119 55 206 164 262 64 33 75 35 160 35 122 -1 190 -27 267 -104
117 -118 139 -287 59 -458 -48 -105 -171 -215 -262 -238 -26 -7 -28 -11 -28
-61 l0 -54 888 2 887 3 3 46 3 46 -76 36 c-101 48 -174 121 -223 224 -36 76
-37 81 -37 193 0 106 2 119 28 168 60 113 174 188 305 199 217 18 392 -152
352 -343 -24 -115 -124 -194 -247 -194 -115 0 -193 63 -201 163 -3 42 1 58 20
87 51 77 156 92 210 31 33 -37 38 -81 9 -81 -11 0 -23 9 -26 20 -11 34 -35 50
-73 50 -104 0 -130 -119 -44 -192 42 -35 98 -43 165 -24 172 50 196 287 39
387 -59 37 -101 49 -179 49 -216 0 -364 -195 -309 -409 57 -224 262 -358 488
-321 264 44 436 260 413 518 -21 249 -170 423 -408 478 l-77 18 33 13 c38 17
103 77 123 116 8 15 18 47 23 72 l8 45 -1208 0 c-1163 0 -1209 -1 -1209 -18z"/>
</g>
</svg>
