<?xml version="1.0" encoding="UTF-8"?>
<svg version="1.1" xmlns="http://www.w3.org/2000/svg" width="512" height="512">
<path d="M0 0 C4.56987683 0.01140204 9.13952076 0.00460801 13.70938969 -0.00688553 C77.69077999 -0.14310373 153.3010797 1.55255573 204.4206543 45.26074219 C205.36811523 46.02644531 205.36811523 46.02644531 206.3347168 46.80761719 C244.23105809 77.85924485 254.45594897 133.96371217 259.0887146 179.79507446 C261.35640928 203.4712913 261.7412397 227.07295593 261.68139648 250.84008789 C261.66999444 255.40996472 261.67678848 259.97960865 261.68828201 264.54947758 C261.82450022 328.53086788 260.12884075 404.14116759 216.4206543 455.26074219 C215.91018555 455.89238281 215.3997168 456.52402344 214.8737793 457.17480469 C183.82215163 495.07114598 127.71768431 505.29603687 81.88632202 509.92880249 C58.21010518 512.19649717 34.60844056 512.58132759 10.84130859 512.52148438 C6.27143177 512.51008233 1.70178783 512.51687637 -2.86808109 512.5283699 C-66.84947139 512.66458811 -142.45977111 510.96892864 -193.5793457 467.26074219 C-194.21098633 466.75027344 -194.84262695 466.23980469 -195.4934082 465.71386719 C-233.38974949 434.66223952 -243.61464038 378.55777221 -248.24740601 332.72640991 C-250.51510068 309.05019307 -250.89993111 285.44852845 -250.84008789 261.68139648 C-250.82868585 257.11151966 -250.83547989 252.54187572 -250.84697342 247.9720068 C-250.98319162 183.9906165 -249.28753216 108.38031678 -205.5793457 57.26074219 C-205.06887695 56.62910156 -204.5584082 55.99746094 -204.0324707 55.34667969 C-172.98084304 17.4503384 -116.87637572 7.22544751 -71.04501343 2.59268188 C-47.36879659 0.32498721 -23.76713196 -0.05984321 0 0 Z " fill="#010101" transform="translate(250.579345703125,-0.2607421875)"/>
<path d="M0 0 C145.4379085 0 145.4379085 0 169 21 C169.67417969 21.58136719 170.34835938 22.16273437 171.04296875 22.76171875 C183.87612935 34.60198491 191.01916078 51.93264361 192.22119141 69.17236328 C192.69052889 82.59142096 192.81656273 95.31323674 188 108 C187.62617188 109.05960937 187.25234375 110.11921875 186.8671875 111.2109375 C179.99564472 129.27717912 166.39002799 142.94906112 149 151 C149.61015373 155.19528961 151.04971081 158.33382672 153.0625 162.05078125 C153.36973495 162.62199203 153.67696991 163.19320282 153.99351501 163.78172302 C154.98930844 165.62884073 155.9944669 167.47066923 157 169.3125 C157.68999198 170.58796877 158.3795246 171.86368615 159.06860352 173.13964844 C162.96497128 180.33907932 166.93465151 187.49449561 170.99584961 194.60229492 C173.87870298 199.68513048 176.47576387 204.8894261 179.0480957 210.13476562 C181.25495643 214.60240688 183.61859262 218.94382965 186.125 223.25 C189.19738651 228.53160745 192.013914 233.87974784 194.67578125 239.37890625 C195.97492813 242.05177705 195.97492813 242.05177705 197.66796875 244.65234375 C199 247 199 247 199 250 C179.53 250 160.06 250 140 250 C135.71 241.42 131.42 232.84 127 224 C123.68886519 217.65365829 120.36849669 211.31557776 117 205 C111.88930844 195.41372368 106.84381451 185.80841563 102.01953125 176.07421875 C99.36019924 170.70926075 96.67786561 165.35573122 94 160 C80.14 159.67 66.28 159.34 52 159 C52 188.7 52 218.4 52 249 C34.84 249 17.68 249 0 249 C0 166.83 0 84.66 0 0 Z " fill="#FDFDFD" transform="translate(72,99)"/>
<path d="M0 0 C79.53 0 159.06 0 241 0 C239.86865754 11.31342457 237.98619993 14.47763704 230.09765625 21.58203125 C227.72122381 23.18844648 225.82119911 23.62220464 223 24 C223 24.66 223 25.32 223 26 C224.216875 25.896875 225.43375 25.79375 226.6875 25.6875 C238.29798351 25.70578423 249.27411646 32.5131327 257.625 40.125 C267.8497287 50.80257216 272.41185059 64.57828643 272.29541016 79.06347656 C272.12103741 85.42733678 271.6948721 90.78171442 267.51171875 95.77734375 C218.82948507 141.74921753 134.39731537 140.45402876 72.25 140.1373291 C67.68947289 140.11640735 63.12892122 140.10763923 58.56835938 140.09765625 C49.71217553 140.07657529 40.85610591 140.0427113 32 140 C32 136.37 32 132.74 32 129 C33.299375 128.46375 34.59875 127.9275 35.9375 127.375 C48.71283637 121.62810104 57.69719982 113.09598424 63 100 C66.33479208 90.63082225 66.52268158 79.8674614 62.9375 70.5625 C58.50149858 61.33115626 52.29202107 55.34180747 43 51 C34.55220901 48.09793533 23.44618885 47.09349247 15 50.625 C12.94002365 51.71725135 12.94002365 51.71725135 11 53 C10.29359375 53.43570313 9.5871875 53.87140625 8.859375 54.3203125 C2.96718352 58.31390895 -0.74831846 63.24495539 -3 70 C-3.82532103 79.76855387 -2.93690537 87.07886828 3.25 94.8125 C10.28496677 100.40849629 15.58103243 101.44367368 24.6328125 101.43359375 C30.6256087 100.66189958 35.08784946 97.92107147 38.8671875 93.30078125 C41.20077753 88.56117943 40.69664248 83.12434133 40 78 C39.09591372 75.37362936 38.50054932 74.32976103 36.1796875 72.80078125 C30.92638635 70.87080502 25.77955781 70.36444364 20.5 72.25 C17.45494388 74.38153928 16.21907296 76.05798628 15.375 79.6875 C15.189375 80.8321875 15.189375 80.8321875 15 82 C16.65 82 18.3 82 20 82 C20.185625 80.824375 20.185625 80.824375 20.375 79.625 C21 77 21 77 23 75 C29.93181818 74.31818182 29.93181818 74.31818182 33.9375 76.875 C36.9903771 80.02038852 36.9903771 80.02038852 37.01953125 82.98828125 C36.56132948 88.1322445 35.96320943 91.35813188 32 95 C27.13277671 98.28254594 22.69771265 98.83541421 17 98 C10.62940468 96.16651159 6.689441 93.47826088 3 88 C0.04191383 81.86432304 -0.25805217 74.39522022 1.6171875 67.84375 C5.3634578 60.55012641 12.47759756 55.6865723 20 53 C31.28796176 51.5934004 41.40915414 52.87598901 50.59765625 60.01953125 C57.54757755 66.47222241 61.04626935 72.26702168 61.4152832 81.82958984 C61.53818988 93.49086721 58.94638942 101.67623666 52 111 C51.401875 111.886875 50.80375 112.77375 50.1875 113.6875 C41.9803172 122.36366468 30.22884065 126.91662349 18.4375 127.375 C5.29925902 127.0929923 -6.56331781 122.85366703 -16.2421875 113.93359375 C-28.26746184 101.2503327 -30.78255387 87.80089661 -30.37890625 70.9296875 C-29.83052413 60.65784175 -25.14318711 52.04427571 -19 44 C-18.37738281 43.17371094 -17.75476563 42.34742188 -17.11328125 41.49609375 C-9.41206136 32.39982848 1.04695052 28.63008177 12 25 C12.99 24.67 13.98 24.34 15 24 C14.22076172 23.47212891 14.22076172 23.47212891 13.42578125 22.93359375 C6.68474387 18.16128817 1.96857809 13.23223565 0 5 C0 3.35 0 1.7 0 0 Z " fill="#FDFDFD" transform="translate(187,372)"/>
<path d="M0 0 C2.50476698 2.1911931 4.89112534 4.44986614 7.24609375 6.80078125 C7.94347656 7.4865625 8.64085937 8.17234375 9.359375 8.87890625 C30.8285011 31.39022293 31.24609375 60.91289899 31.24609375 90.80078125 C-10.66390625 90.80078125 -52.57390625 90.80078125 -95.75390625 90.80078125 C-94.46119522 105.02060254 -91.7682806 118.01661245 -80.98828125 128.046875 C-70.69228593 136.12887132 -58.96696522 137.79017134 -46.25390625 136.55859375 C-36.38773861 135.00909947 -27.51551202 130.69281883 -21.15625 122.92578125 C-19.45960233 120.35481654 -18.1314746 117.55591796 -16.75390625 114.80078125 C-1.57390625 114.80078125 13.60609375 114.80078125 29.24609375 114.80078125 C27.02573242 132.56367186 17.10996609 146.36918895 3.68359375 157.92578125 C-7.19547085 166.24506594 -19.47192272 170.93730855 -32.75390625 173.80078125 C-33.87176514 174.0622998 -33.87176514 174.0622998 -35.01220703 174.32910156 C-59.71349371 178.57869069 -88.00765131 174.83995121 -108.9609375 160.87109375 C-128.78345507 146.17747933 -140.89729729 125.1896611 -144.75390625 100.80078125 C-148.650201 70.39728189 -145.67882797 39.77216658 -127.31640625 14.48828125 C-119.59642108 4.61809887 -111.42991941 -1.84145148 -100.75390625 -8.19921875 C-100.03203125 -8.63363281 -99.31015625 -9.06804687 -98.56640625 -9.515625 C-68.90872663 -25.81456531 -25.8584556 -20.65008582 0 0 Z " fill="#FDFDFD" transform="translate(431.75390625,177.19921875)"/>
<path d="M0 0 C8.641875 -0.0825 17.28375 -0.165 26.1875 -0.25 C28.88832764 -0.28641602 31.58915527 -0.32283203 34.37182617 -0.36035156 C36.55386566 -0.37205278 38.735914 -0.38224119 40.91796875 -0.390625 C42.56714294 -0.4213208 42.56714294 -0.4213208 44.24963379 -0.45263672 C57.17947632 -0.45834589 67.55958241 2.89639143 76.8984375 11.8125 C84.69959187 19.97573327 87.34909049 29.88202965 87.21484375 40.96484375 C86.43387302 51.99783018 82.82809853 61.67067508 74.75 69.3125 C64.20088537 78.08308621 52.17128495 79.32495421 38.8671875 79.1953125 C37.87468994 79.19329834 36.88219238 79.19128418 35.85961914 79.18920898 C32.19803153 79.17884732 28.53651048 79.15092585 24.875 79.125 C16.66625 79.08375 8.4575 79.0425 0 79 C0 52.93 0 26.86 0 0 Z " fill="#010101" transform="translate(124,140)"/>
<path d="M0 0 C8.49090511 7.33801157 12.74165204 17.14581888 15.125 27.9375 C15.125 29.2575 15.125 30.5775 15.125 31.9375 C-10.945 31.9375 -37.015 31.9375 -63.875 31.9375 C-61.08110304 17.96801519 -57.06953346 6.27331699 -44.875 -2.0625 C-30.79566923 -9.64740625 -13.29804576 -9.37624922 0 0 Z " fill="#020202" transform="translate(399.875,204.0625)"/>
<path d="M0 0 C0.598125 0.37125 1.19625 0.7425 1.8125 1.125 C2.84375 1.7025 3.875 2.28 4.9375 2.875 C11.48014856 7.99533366 16.5612698 13.7017699 17.8125 22.125 C18.26525078 31.01437514 16.78054683 37.4309134 10.8125 44.125 C5.05197394 49.73782027 -0.32237905 51.32062459 -8.1875 51.5625 C-14.15526571 51.42312543 -17.53751865 50.86520239 -22.1875 47.125 C-26.86434811 42.06894798 -28.61619492 38.11743128 -28.4375 31.3046875 C-27.93445819 26.91879172 -25.87462493 24.74341244 -22.6875 21.875 C-18.48862912 18.93579038 -14.20717062 18.30101633 -9.1875 19.125 C-6.38253411 20.46729054 -5.32622257 21.67329364 -3.1875 24.125 C-2.3125 27.9375 -2.3125 27.9375 -2.1875 31.125 C-3.8375 31.125 -5.4875 31.125 -7.1875 31.125 C-7.496875 30.320625 -7.80625 29.51625 -8.125 28.6875 C-8.95085345 26.23419595 -8.95085345 26.23419595 -10.1875 25.125 C-15.70338852 24.6131343 -15.70338852 24.6131343 -20.6875 26.5625 C-22.93036765 30.39406558 -23.07799639 33.79973183 -22.1875 38.125 C-20.46310453 41.19200597 -18.38222813 43.52763593 -15.1875 45.125 C-7.260413 45.7521755 -0.55859299 46.2495748 5.8125 41.125 C10.66336562 36.01192542 12.23953868 31.40168292 12.06640625 24.46484375 C11.4277448 18.57933286 9.12203731 13.2135354 4.8125 9.125 C-4.621018 3.64797392 -13.36623406 1.73193518 -24.1875 3.125 C-33.83773501 6.06344235 -40.03419621 11.76438355 -45.0625 20.3125 C-48.91572914 29.94557285 -47.88562314 40.58382647 -44 50.00390625 C-38.40499077 62.15176597 -31.31409973 67.78929612 -19.1875 73.125 C-19.1875 73.785 -19.1875 74.445 -19.1875 75.125 C-22.81873267 76.23015777 -24.97897308 76.59211155 -28.5625 75.20703125 C-39.99790442 68.82821972 -46.73158674 59.26736363 -51.1875 47.125 C-53.65293102 37.92879104 -53.64743266 25.89359874 -49.44140625 17.26171875 C-45.14485963 9.94018915 -40.67615775 5.25414571 -33.1875 1.125 C-32.44886719 0.70992188 -31.71023438 0.29484375 -30.94921875 -0.1328125 C-21.7052052 -4.57615347 -9.10717786 -4.96755156 0 0 Z " fill="#111111" transform="translate(415.1875,422.875)"/>
<path d="M0 0 C0.66 0.33 1.32 0.66 2 1 C0.8125 3 0.8125 3 -1 5 C-3.6875 5.25 -3.6875 5.25 -6 5 C-6 4.34 -6 3.68 -6 3 C-4.03533587 1.93224776 -2.03144641 0.93446535 0 0 Z " fill="#4D4D4D" transform="translate(416,393)"/>
</svg>
